G04*
G04 #@! TF.GenerationSoftware,Altium Limited,Altium Designer,21.0.9 (235)*
G04*
G04 Layer_Color=16711935*
%FSLAX44Y44*%
%MOMM*%
G71*
G04*
G04 #@! TF.SameCoordinates,3ED63D2E-4D53-4139-B350-83C99BDD6A5C*
G04*
G04*
G04 #@! TF.FilePolarity,Negative*
G04*
G01*
G75*
%ADD45C,1.5532*%
%ADD46R,1.5532X1.5532*%
%ADD47C,1.7032*%
%ADD48R,1.7032X1.7032*%
%ADD49R,1.6032X1.6032*%
%ADD50C,1.6032*%
%ADD51C,1.4732*%
D45*
X190000Y195000D02*
D03*
D46*
X240000D02*
D03*
D47*
X482500Y250400D02*
D03*
Y167900D02*
D03*
Y332100D02*
D03*
Y357500D02*
D03*
Y382900D02*
D03*
Y225000D02*
D03*
Y275800D02*
D03*
Y117100D02*
D03*
Y142500D02*
D03*
X20000Y212500D02*
D03*
X482500Y42900D02*
D03*
D48*
Y306700D02*
D03*
Y199600D02*
D03*
Y91700D02*
D03*
X20000Y187100D02*
D03*
X482500Y17500D02*
D03*
D49*
X207500Y322500D02*
D03*
X240000Y75000D02*
D03*
D50*
X190000D02*
D03*
X157500Y322500D02*
D03*
D51*
X368000Y169000D02*
D03*
X353000Y367890D02*
D03*
X374000Y305000D02*
D03*
X368000Y244000D02*
D03*
X333000Y269610D02*
D03*
X380000D02*
D03*
X447934Y273934D02*
D03*
X448000Y301000D02*
D03*
X429000Y153688D02*
D03*
X440000Y170000D02*
D03*
M02*
