M48
;Layer_Color=9474304
;FILE_FORMAT=4:4
METRIC,LZ
;TYPE=PLATED
T1F00S00C0.7112
T2F00S00C0.8500
T3F00S00C0.9000
%
T01
X00368Y00169
X0044Y0017
X00429Y00153688
X00447934Y00273934
X00448Y00301
X00374Y00305
X0038Y0026961
X00368Y00244
X00333Y0026961
X00353Y0036789
T02
X0019Y00195
X0024
T03
X0019Y00075
X0024
X004825Y000917
Y001171
Y001425
Y000429
Y000175
Y001679
Y001996
Y00225
Y002504
Y002758
Y003067
Y003321
Y003575
Y003829
X002075Y003225
X001575
X0002Y002125
Y001871
M30
