G04*
G04 #@! TF.GenerationSoftware,Altium Limited,Altium Designer,21.0.9 (235)*
G04*
G04 Layer_Color=255*
%FSLAX44Y44*%
%MOMM*%
G71*
G04*
G04 #@! TF.SameCoordinates,3ED63D2E-4D53-4139-B350-83C99BDD6A5C*
G04*
G04*
G04 #@! TF.FilePolarity,Positive*
G04*
G01*
G75*
%ADD17O,1.7000X0.3500*%
%ADD18R,1.5260X0.6500*%
%ADD19R,0.9000X0.7000*%
%ADD20R,0.7000X1.2000*%
%ADD21O,0.4000X1.6000*%
%ADD22R,1.4000X1.1000*%
%ADD23R,1.1000X1.4000*%
%ADD24R,2.3000X2.3000*%
%ADD25R,0.7000X0.9000*%
%ADD26R,6.3000X2.2000*%
%ADD27R,0.6000X1.2000*%
G04:AMPARAMS|DCode=28|XSize=1.8mm|YSize=0.6mm|CornerRadius=0.3mm|HoleSize=0mm|Usage=FLASHONLY|Rotation=270.000|XOffset=0mm|YOffset=0mm|HoleType=Round|Shape=RoundedRectangle|*
%AMROUNDEDRECTD28*
21,1,1.8000,0.0000,0,0,270.0*
21,1,1.2000,0.6000,0,0,270.0*
1,1,0.6000,0.0000,-0.6000*
1,1,0.6000,0.0000,0.6000*
1,1,0.6000,0.0000,0.6000*
1,1,0.6000,0.0000,-0.6000*
%
%ADD28ROUNDEDRECTD28*%
%ADD29R,1.2000X1.1000*%
%ADD30R,1.2700X1.2700*%
%ADD54C,1.3500*%
%ADD55R,1.3500X1.3500*%
%ADD56C,1.5000*%
%ADD57R,1.5000X1.5000*%
%ADD58R,1.4000X1.4000*%
%ADD59C,1.4000*%
D17*
X403500Y185750D02*
D03*
Y192250D02*
D03*
Y198750D02*
D03*
Y205250D02*
D03*
Y211750D02*
D03*
Y218250D02*
D03*
Y224750D02*
D03*
Y231250D02*
D03*
Y237750D02*
D03*
Y244250D02*
D03*
X346500Y185750D02*
D03*
Y192250D02*
D03*
Y198750D02*
D03*
Y205250D02*
D03*
Y211750D02*
D03*
Y218250D02*
D03*
Y224750D02*
D03*
Y231250D02*
D03*
Y237750D02*
D03*
Y244250D02*
D03*
D18*
X102120Y59050D02*
D03*
Y46350D02*
D03*
Y33650D02*
D03*
Y20950D02*
D03*
X47880D02*
D03*
Y33650D02*
D03*
Y46350D02*
D03*
Y59050D02*
D03*
X102120Y129050D02*
D03*
Y116350D02*
D03*
Y103650D02*
D03*
Y90950D02*
D03*
X47880D02*
D03*
Y103650D02*
D03*
Y116350D02*
D03*
Y129050D02*
D03*
D19*
X422000Y268500D02*
D03*
Y283500D02*
D03*
X125000Y42500D02*
D03*
X382500Y130000D02*
D03*
Y145000D02*
D03*
X395000Y130000D02*
D03*
Y145000D02*
D03*
X407500Y130000D02*
D03*
Y145000D02*
D03*
X125000Y92500D02*
D03*
Y77500D02*
D03*
Y57500D02*
D03*
X324000Y222500D02*
D03*
Y237500D02*
D03*
X409000Y283500D02*
D03*
Y268500D02*
D03*
D20*
X327500Y350000D02*
D03*
X350500Y326000D02*
D03*
X327500D02*
D03*
D21*
X390250Y96000D02*
D03*
Y54000D02*
D03*
X409750Y96000D02*
D03*
X403250D02*
D03*
X396750D02*
D03*
X409750Y54000D02*
D03*
X403250D02*
D03*
X396750D02*
D03*
D22*
X373000Y98000D02*
D03*
X326000Y194500D02*
D03*
X371000Y345500D02*
D03*
Y330500D02*
D03*
X326000Y209500D02*
D03*
X373000Y83000D02*
D03*
D23*
X321500Y367000D02*
D03*
X390500Y22000D02*
D03*
X405500D02*
D03*
X336500Y367000D02*
D03*
D24*
X135000Y167500D02*
D03*
X90000D02*
D03*
X137250Y203500D02*
D03*
X92250D02*
D03*
D25*
X82500Y75000D02*
D03*
X425000Y27500D02*
D03*
X305500Y280000D02*
D03*
Y293000D02*
D03*
X67500Y75000D02*
D03*
X57500Y155000D02*
D03*
X42500D02*
D03*
X320500Y280000D02*
D03*
Y293000D02*
D03*
X440000Y137500D02*
D03*
X455000D02*
D03*
X440000Y124600D02*
D03*
X455000D02*
D03*
X440000Y27500D02*
D03*
D26*
X67500Y366000D02*
D03*
Y286000D02*
D03*
Y245000D02*
D03*
Y325000D02*
D03*
D27*
X339000Y326000D02*
D03*
Y350000D02*
D03*
D28*
X350500Y347000D02*
D03*
D29*
X308000Y214500D02*
D03*
Y235500D02*
D03*
D30*
X387500Y350200D02*
D03*
Y324800D02*
D03*
X442500D02*
D03*
Y350200D02*
D03*
D54*
X190000Y195000D02*
D03*
D55*
X240000D02*
D03*
D56*
X482500Y250400D02*
D03*
Y167900D02*
D03*
Y332100D02*
D03*
Y357500D02*
D03*
Y382900D02*
D03*
Y225000D02*
D03*
Y275800D02*
D03*
Y117100D02*
D03*
Y142500D02*
D03*
X20000Y212500D02*
D03*
X482500Y42900D02*
D03*
D57*
Y306700D02*
D03*
Y199600D02*
D03*
Y91700D02*
D03*
X20000Y187100D02*
D03*
X482500Y17500D02*
D03*
D58*
X207500Y322500D02*
D03*
X240000Y75000D02*
D03*
D59*
X190000D02*
D03*
X157500Y322500D02*
D03*
M02*
