G04*
G04 #@! TF.GenerationSoftware,Altium Limited,Altium Designer,21.0.9 (235)*
G04*
G04 Layer_Physical_Order=2*
G04 Layer_Color=16711680*
%FSLAX44Y44*%
%MOMM*%
G71*
G04*
G04 #@! TF.SameCoordinates,3ED63D2E-4D53-4139-B350-83C99BDD6A5C*
G04*
G04*
G04 #@! TF.FilePolarity,Positive*
G04*
G01*
G75*
%ADD15C,0.2540*%
%ADD52C,0.3000*%
%ADD53C,0.5000*%
%ADD54C,1.3500*%
%ADD55R,1.3500X1.3500*%
%ADD56C,1.5000*%
%ADD57R,1.5000X1.5000*%
%ADD58R,1.4000X1.4000*%
%ADD59C,1.4000*%
%ADD60C,1.2700*%
G36*
X500000Y372920D02*
X499791Y372771D01*
X498065Y373085D01*
X497913Y373313D01*
X491929Y379297D01*
X492540Y381578D01*
Y384222D01*
X491856Y386775D01*
X490534Y389065D01*
X488665Y390934D01*
X486375Y392256D01*
X483822Y392940D01*
X481178D01*
X478625Y392256D01*
X476335Y390934D01*
X474466Y389065D01*
X473144Y386775D01*
X472460Y384222D01*
Y381578D01*
X473144Y379025D01*
X474466Y376735D01*
X476335Y374866D01*
X478625Y373544D01*
X481178Y372860D01*
X483822D01*
X486103Y373471D01*
X490881Y368694D01*
Y365114D01*
X489611Y364588D01*
X488665Y365534D01*
X486375Y366856D01*
X483822Y367540D01*
X483770D01*
Y357500D01*
Y347460D01*
X483822D01*
X486375Y348144D01*
X488665Y349466D01*
X489611Y350412D01*
X490881Y349886D01*
Y339714D01*
X489611Y339188D01*
X488665Y340134D01*
X486375Y341456D01*
X483822Y342140D01*
X481178D01*
X478625Y341456D01*
X476335Y340134D01*
X474466Y338265D01*
X473285Y336219D01*
X421100D01*
X419524Y335906D01*
X418187Y335013D01*
X382395Y299220D01*
X381378Y300000D01*
X382284Y301569D01*
X382890Y303830D01*
Y306170D01*
X382284Y308431D01*
X381114Y310459D01*
X379459Y312114D01*
X377885Y313022D01*
Y346000D01*
X377589Y347487D01*
X376747Y348747D01*
X361193Y364301D01*
X361284Y364459D01*
X361890Y366720D01*
Y369060D01*
X361284Y371321D01*
X360114Y373349D01*
X358459Y375004D01*
X356431Y376174D01*
X354170Y376780D01*
X351830D01*
X349569Y376174D01*
X347541Y375004D01*
X345886Y373349D01*
X344716Y371321D01*
X344110Y369060D01*
Y366720D01*
X344716Y364459D01*
X345886Y362431D01*
X347541Y360776D01*
X349569Y359606D01*
X351830Y359000D01*
X354170D01*
X355224Y359282D01*
X370115Y344391D01*
Y313022D01*
X368541Y312114D01*
X366886Y310459D01*
X365716Y308431D01*
X365110Y306170D01*
Y303830D01*
X365716Y301569D01*
X366886Y299541D01*
X368541Y297886D01*
X370569Y296716D01*
X372830Y296110D01*
X375170D01*
X377431Y296716D01*
X379000Y297622D01*
X379780Y296605D01*
X356904Y273729D01*
X340887D01*
X340114Y275069D01*
X338459Y276724D01*
X336431Y277894D01*
X334170Y278500D01*
X331830D01*
X329569Y277894D01*
X327541Y276724D01*
X325886Y275069D01*
X324716Y273041D01*
X324110Y270780D01*
Y268440D01*
X324716Y266179D01*
X325886Y264151D01*
X326336Y263702D01*
X325849Y262529D01*
X302390D01*
X300424Y262138D01*
X298756Y261024D01*
X242023Y204290D01*
X237977D01*
X212639Y229629D01*
Y312960D01*
X217040D01*
Y332040D01*
X197960D01*
Y312960D01*
X202361D01*
Y227500D01*
X202752Y225534D01*
X203866Y223866D01*
X230710Y197023D01*
Y185710D01*
X249290D01*
Y197023D01*
X304519Y252251D01*
X362221D01*
X362409Y250981D01*
X360886Y249459D01*
X359716Y247431D01*
X359110Y245170D01*
Y242830D01*
X359716Y240569D01*
X360886Y238541D01*
X362541Y236886D01*
X363881Y236113D01*
Y218000D01*
X364194Y216424D01*
X365087Y215087D01*
X371087Y209087D01*
X372424Y208194D01*
X374000Y207881D01*
X421294D01*
X435881Y193294D01*
Y177887D01*
X434541Y177114D01*
X432886Y175459D01*
X431716Y173431D01*
X431110Y171170D01*
Y168830D01*
X431716Y166569D01*
X432886Y164541D01*
X434541Y162886D01*
X436569Y161716D01*
X438830Y161110D01*
X441170D01*
X443431Y161716D01*
X445459Y162886D01*
X447114Y164541D01*
X448284Y166569D01*
X448890Y168830D01*
Y171170D01*
X448284Y173431D01*
X447114Y175459D01*
X445459Y177114D01*
X444119Y177887D01*
Y195000D01*
X443806Y196576D01*
X442913Y197913D01*
X425913Y214913D01*
X424576Y215806D01*
X423000Y216119D01*
X375706D01*
X372119Y219706D01*
Y236113D01*
X373459Y236886D01*
X375114Y238541D01*
X376284Y240569D01*
X376890Y242830D01*
Y245170D01*
X376284Y247431D01*
X375114Y249459D01*
X373591Y250981D01*
X373778Y252251D01*
X470676D01*
X472460Y250467D01*
Y249078D01*
X472767Y247934D01*
X466326Y241494D01*
X465212Y239827D01*
X464821Y237860D01*
Y180440D01*
X465212Y178473D01*
X466326Y176806D01*
X472767Y170366D01*
X472460Y169222D01*
Y166578D01*
X473144Y164025D01*
X474466Y161735D01*
X476335Y159866D01*
X478625Y158544D01*
X481178Y157860D01*
X483822D01*
X486375Y158544D01*
X488665Y159866D01*
X490534Y161735D01*
X491856Y164025D01*
X492540Y166578D01*
Y169222D01*
X491856Y171775D01*
X490534Y174065D01*
X488665Y175934D01*
X486375Y177256D01*
X483822Y177940D01*
X481178D01*
X480034Y177633D01*
X475099Y182568D01*
Y189560D01*
X492540D01*
Y209640D01*
X475099D01*
Y216543D01*
X476272Y217029D01*
X476335Y216966D01*
X478625Y215644D01*
X481178Y214960D01*
X483822D01*
X486375Y215644D01*
X488665Y216966D01*
X490534Y218835D01*
X491856Y221125D01*
X492540Y223678D01*
Y226322D01*
X491856Y228875D01*
X490534Y231165D01*
X488665Y233034D01*
X486375Y234356D01*
X483822Y235040D01*
X481178D01*
X478625Y234356D01*
X476335Y233034D01*
X476272Y232971D01*
X475099Y233457D01*
Y235732D01*
X480034Y240667D01*
X481178Y240360D01*
X483822D01*
X486375Y241044D01*
X488665Y242366D01*
X490534Y244235D01*
X491856Y246525D01*
X492540Y249078D01*
Y251722D01*
X491856Y254275D01*
X490534Y256565D01*
X488665Y258434D01*
X486375Y259756D01*
X483822Y260440D01*
X481178D01*
X478625Y259756D01*
X478042Y259419D01*
X476438Y261024D01*
X474771Y262138D01*
X472804Y262529D01*
X387150D01*
X386664Y263702D01*
X387114Y264151D01*
X388284Y266179D01*
X388890Y268440D01*
Y270780D01*
X388490Y272274D01*
X430336Y314121D01*
X472460D01*
Y296660D01*
X492540D01*
Y316740D01*
X490945D01*
X490459Y317913D01*
X497913Y325367D01*
X498065Y325595D01*
X499791Y325909D01*
X500000Y325760D01*
Y0D01*
X0D01*
Y400000D01*
X500000D01*
Y372920D01*
D02*
G37*
G36*
X474466Y325935D02*
X476335Y324066D01*
X477092Y323629D01*
X476752Y322359D01*
X428630D01*
X427054Y322046D01*
X425717Y321153D01*
X382664Y278100D01*
X381170Y278500D01*
X378830D01*
X376569Y277894D01*
X374541Y276724D01*
X372886Y275069D01*
X371716Y273041D01*
X371110Y270780D01*
Y268440D01*
X371716Y266179D01*
X372886Y264151D01*
X373336Y263702D01*
X372850Y262529D01*
X340150D01*
X339664Y263702D01*
X340114Y264151D01*
X340887Y265491D01*
X358610D01*
X360186Y265804D01*
X361523Y266697D01*
X422806Y327981D01*
X473285D01*
X474466Y325935D01*
D02*
G37*
%LPC*%
G36*
X481230Y367540D02*
X481178D01*
X478625Y366856D01*
X476335Y365534D01*
X474466Y363665D01*
X473144Y361375D01*
X472460Y358822D01*
Y358770D01*
X481230D01*
Y367540D01*
D02*
G37*
G36*
Y356230D02*
X472460D01*
Y356178D01*
X473144Y353625D01*
X474466Y351335D01*
X476335Y349466D01*
X478625Y348144D01*
X481178Y347460D01*
X481230D01*
Y356230D01*
D02*
G37*
G36*
X158770Y332036D02*
Y323770D01*
X167036D01*
X166390Y326182D01*
X165134Y328358D01*
X163358Y330134D01*
X161182Y331390D01*
X158770Y332036D01*
D02*
G37*
G36*
X156230D02*
X153818Y331390D01*
X151642Y330134D01*
X149866Y328358D01*
X148610Y326182D01*
X147964Y323770D01*
X156230D01*
Y332036D01*
D02*
G37*
G36*
X167036Y321230D02*
X158770D01*
Y312964D01*
X161182Y313610D01*
X163358Y314866D01*
X165134Y316642D01*
X166390Y318818D01*
X167036Y321230D01*
D02*
G37*
G36*
X156230D02*
X147964D01*
X148610Y318818D01*
X149866Y316642D01*
X151642Y314866D01*
X153818Y313610D01*
X156230Y312964D01*
Y321230D01*
D02*
G37*
G36*
X483822Y285840D02*
X483770D01*
Y277070D01*
X492540D01*
Y277122D01*
X491856Y279675D01*
X490534Y281965D01*
X488665Y283834D01*
X486375Y285156D01*
X483822Y285840D01*
D02*
G37*
G36*
X481230D02*
X481178D01*
X478625Y285156D01*
X476335Y283834D01*
X474466Y281965D01*
X473144Y279675D01*
X472460Y277122D01*
Y277070D01*
X481230D01*
Y285840D01*
D02*
G37*
G36*
X492540Y274530D02*
X483770D01*
Y265760D01*
X483822D01*
X486375Y266444D01*
X488665Y267766D01*
X490534Y269635D01*
X491856Y271925D01*
X492540Y274478D01*
Y274530D01*
D02*
G37*
G36*
X481230D02*
X472460D01*
Y274478D01*
X473144Y271925D01*
X474466Y269635D01*
X476335Y267766D01*
X478625Y266444D01*
X481178Y265760D01*
X481230D01*
Y274530D01*
D02*
G37*
G36*
X449170Y309890D02*
X446830D01*
X444569Y309284D01*
X442541Y308114D01*
X440886Y306459D01*
X439716Y304431D01*
X439110Y302170D01*
Y299830D01*
X439716Y297569D01*
X440886Y295541D01*
X442541Y293886D01*
X444082Y292997D01*
Y281976D01*
X442476Y281048D01*
X440820Y279393D01*
X439650Y277366D01*
X439044Y275105D01*
Y272764D01*
X439650Y270503D01*
X440820Y268476D01*
X442476Y266820D01*
X444503Y265650D01*
X446764Y265044D01*
X449105D01*
X451366Y265650D01*
X453393Y266820D01*
X455048Y268476D01*
X456218Y270503D01*
X456824Y272764D01*
Y275105D01*
X456218Y277366D01*
X455048Y279393D01*
X453393Y281048D01*
X451852Y281938D01*
Y292959D01*
X453459Y293886D01*
X455114Y295541D01*
X456284Y297569D01*
X456890Y299830D01*
Y302170D01*
X456284Y304431D01*
X455114Y306459D01*
X453459Y308114D01*
X451431Y309284D01*
X449170Y309890D01*
D02*
G37*
G36*
X21322Y222540D02*
X18678D01*
X16125Y221856D01*
X13835Y220534D01*
X11966Y218665D01*
X10644Y216375D01*
X9960Y213822D01*
Y211178D01*
X10644Y208625D01*
X11966Y206335D01*
X13835Y204466D01*
X16125Y203144D01*
X18678Y202460D01*
X21322D01*
X23875Y203144D01*
X26165Y204466D01*
X28034Y206335D01*
X29356Y208625D01*
X30040Y211178D01*
Y213822D01*
X29356Y216375D01*
X28034Y218665D01*
X26165Y220534D01*
X23875Y221856D01*
X21322Y222540D01*
D02*
G37*
G36*
X191270Y204277D02*
Y196270D01*
X199277D01*
X198657Y198586D01*
X197434Y200704D01*
X195704Y202434D01*
X193586Y203657D01*
X191270Y204277D01*
D02*
G37*
G36*
X188730Y204277D02*
X186414Y203657D01*
X184296Y202434D01*
X182566Y200704D01*
X181343Y198586D01*
X180723Y196270D01*
X188730D01*
Y204277D01*
D02*
G37*
G36*
X30040Y197140D02*
X21270D01*
Y188370D01*
X30040D01*
Y197140D01*
D02*
G37*
G36*
X18730D02*
X9960D01*
Y188370D01*
X18730D01*
Y197140D01*
D02*
G37*
G36*
X199277Y193730D02*
X191270D01*
Y185723D01*
X193586Y186343D01*
X195704Y187566D01*
X197434Y189296D01*
X198657Y191414D01*
X199277Y193730D01*
D02*
G37*
G36*
X188730D02*
X180723D01*
X181343Y191414D01*
X182566Y189296D01*
X184296Y187566D01*
X186414Y186343D01*
X188730Y185723D01*
Y193730D01*
D02*
G37*
G36*
X30040Y185830D02*
X21270D01*
Y177060D01*
X30040D01*
Y185830D01*
D02*
G37*
G36*
X18730D02*
X9960D01*
Y177060D01*
X18730D01*
Y185830D01*
D02*
G37*
G36*
X369170Y177890D02*
X366830D01*
X364569Y177284D01*
X362541Y176114D01*
X360886Y174459D01*
X359716Y172431D01*
X359110Y170170D01*
Y167830D01*
X359716Y165569D01*
X360886Y163541D01*
X362541Y161886D01*
X364569Y160716D01*
X366830Y160110D01*
X369170D01*
X370664Y160510D01*
X380400Y150775D01*
X381736Y149882D01*
X383312Y149569D01*
X421113D01*
X421886Y148229D01*
X423541Y146574D01*
X425569Y145403D01*
X427830Y144798D01*
X430170D01*
X432431Y145403D01*
X434459Y146574D01*
X436114Y148229D01*
X437284Y150256D01*
X437890Y152517D01*
Y154858D01*
X437284Y157119D01*
X436114Y159146D01*
X434459Y160801D01*
X432431Y161972D01*
X430170Y162578D01*
X427830D01*
X425569Y161972D01*
X423541Y160801D01*
X421886Y159146D01*
X421113Y157807D01*
X385019D01*
X376490Y166336D01*
X376890Y167830D01*
Y170170D01*
X376284Y172431D01*
X375114Y174459D01*
X373459Y176114D01*
X371431Y177284D01*
X369170Y177890D01*
D02*
G37*
G36*
X483822Y152540D02*
X481178D01*
X478625Y151856D01*
X476335Y150534D01*
X474466Y148665D01*
X473144Y146375D01*
X472460Y143822D01*
Y141178D01*
X473144Y138625D01*
X474466Y136335D01*
X476335Y134466D01*
X478625Y133144D01*
X481178Y132460D01*
X483822D01*
X486375Y133144D01*
X488665Y134466D01*
X490534Y136335D01*
X491856Y138625D01*
X492540Y141178D01*
Y143822D01*
X491856Y146375D01*
X490534Y148665D01*
X488665Y150534D01*
X486375Y151856D01*
X483822Y152540D01*
D02*
G37*
G36*
Y127140D02*
X481178D01*
X478625Y126456D01*
X476335Y125134D01*
X474466Y123265D01*
X473144Y120975D01*
X472460Y118422D01*
Y115778D01*
X473144Y113225D01*
X474466Y110935D01*
X476335Y109066D01*
X478625Y107744D01*
X481178Y107060D01*
X483822D01*
X486375Y107744D01*
X488665Y109066D01*
X490534Y110935D01*
X491856Y113225D01*
X492540Y115778D01*
Y118422D01*
X491856Y120975D01*
X490534Y123265D01*
X488665Y125134D01*
X486375Y126456D01*
X483822Y127140D01*
D02*
G37*
G36*
X492540Y101740D02*
X483770D01*
Y92970D01*
X492540D01*
Y101740D01*
D02*
G37*
G36*
X481230D02*
X472460D01*
Y92970D01*
X481230D01*
Y101740D01*
D02*
G37*
G36*
X492540Y90430D02*
X483770D01*
Y81660D01*
X492540D01*
Y90430D01*
D02*
G37*
G36*
X481230D02*
X472460D01*
Y81660D01*
X481230D01*
Y90430D01*
D02*
G37*
G36*
X191270Y84536D02*
Y76270D01*
X199536D01*
X198890Y78682D01*
X197634Y80858D01*
X195858Y82634D01*
X193682Y83890D01*
X191270Y84536D01*
D02*
G37*
G36*
X188730D02*
X186318Y83890D01*
X184142Y82634D01*
X182366Y80858D01*
X181110Y78682D01*
X180464Y76270D01*
X188730D01*
Y84536D01*
D02*
G37*
G36*
X199536Y73730D02*
X191270D01*
Y65464D01*
X193682Y66110D01*
X195858Y67366D01*
X197634Y69142D01*
X198890Y71318D01*
X199536Y73730D01*
D02*
G37*
G36*
X188730D02*
X180464D01*
X181110Y71318D01*
X182366Y69142D01*
X184142Y67366D01*
X186318Y66110D01*
X188730Y65464D01*
Y73730D01*
D02*
G37*
G36*
X249540Y84540D02*
X230460D01*
Y65460D01*
X249540D01*
Y84540D01*
D02*
G37*
G36*
X483822Y52940D02*
X483770D01*
Y44170D01*
X492540D01*
Y44222D01*
X491856Y46775D01*
X490534Y49065D01*
X488665Y50934D01*
X486375Y52256D01*
X483822Y52940D01*
D02*
G37*
G36*
X481230D02*
X481178D01*
X478625Y52256D01*
X476335Y50934D01*
X474466Y49065D01*
X473144Y46775D01*
X472460Y44222D01*
Y44170D01*
X481230D01*
Y52940D01*
D02*
G37*
G36*
X492540Y41630D02*
X483770D01*
Y32860D01*
X483822D01*
X486375Y33544D01*
X488665Y34866D01*
X490534Y36735D01*
X491856Y39025D01*
X492540Y41578D01*
Y41630D01*
D02*
G37*
G36*
X481230D02*
X472460D01*
Y41578D01*
X473144Y39025D01*
X474466Y36735D01*
X476335Y34866D01*
X478625Y33544D01*
X481178Y32860D01*
X481230D01*
Y41630D01*
D02*
G37*
G36*
X492540Y27540D02*
X472460D01*
Y7460D01*
X492540D01*
Y27540D01*
D02*
G37*
%LPD*%
D15*
X353000Y367000D02*
Y367890D01*
Y367000D02*
X374000Y346000D01*
Y305000D02*
Y346000D01*
X447967Y300967D02*
X448000Y301000D01*
X447934Y273934D02*
X447967Y273967D01*
Y300967D01*
D52*
X368000Y169000D02*
X383312Y153688D01*
X429000D01*
X428630Y318240D02*
X484960D01*
X380000Y269610D02*
X428630Y318240D01*
X421100Y332100D02*
X482500D01*
X484960Y318240D02*
X495000Y328280D01*
Y370400D01*
X358610Y269610D02*
X421100Y332100D01*
X333000Y269610D02*
X358610D01*
X482500Y382900D02*
X495000Y370400D01*
X368000Y218000D02*
X374000Y212000D01*
X368000Y218000D02*
Y244000D01*
X374000Y212000D02*
X423000D01*
X440000Y195000D01*
Y170000D02*
Y195000D01*
D53*
X469960Y237860D02*
X481147Y249047D01*
X482500Y250400D01*
X302390Y257390D02*
X472804D01*
X240000Y195000D02*
X302390Y257390D01*
X479794Y250400D02*
X482500D01*
X472804Y257390D02*
X479794Y250400D01*
X469960Y180440D02*
X482500Y167900D01*
X207500Y227500D02*
X240000Y195000D01*
X207500Y227500D02*
Y322500D01*
X469960Y180440D02*
Y237860D01*
D54*
X190000Y195000D02*
D03*
D55*
X240000D02*
D03*
D56*
X482500Y250400D02*
D03*
Y167900D02*
D03*
Y332100D02*
D03*
Y357500D02*
D03*
Y382900D02*
D03*
Y225000D02*
D03*
Y275800D02*
D03*
Y117100D02*
D03*
Y142500D02*
D03*
X20000Y212500D02*
D03*
X482500Y42900D02*
D03*
D57*
Y306700D02*
D03*
Y199600D02*
D03*
Y91700D02*
D03*
X20000Y187100D02*
D03*
X482500Y17500D02*
D03*
D58*
X207500Y322500D02*
D03*
X240000Y75000D02*
D03*
D59*
X190000D02*
D03*
X157500Y322500D02*
D03*
D60*
X368000Y169000D02*
D03*
X353000Y367890D02*
D03*
X374000Y305000D02*
D03*
X368000Y244000D02*
D03*
X333000Y269610D02*
D03*
X380000D02*
D03*
X447934Y273934D02*
D03*
X448000Y301000D02*
D03*
X429000Y153688D02*
D03*
X440000Y170000D02*
D03*
M02*
