G04*
G04 #@! TF.GenerationSoftware,Altium Limited,Altium Designer,21.0.9 (235)*
G04*
G04 Layer_Physical_Order=1*
G04 Layer_Color=255*
%FSLAX44Y44*%
%MOMM*%
G71*
G04*
G04 #@! TF.SameCoordinates,3ED63D2E-4D53-4139-B350-83C99BDD6A5C*
G04*
G04*
G04 #@! TF.FilePolarity,Positive*
G04*
G01*
G75*
%ADD15C,0.2540*%
%ADD17O,1.7000X0.3500*%
%ADD18R,1.5260X0.6500*%
%ADD19R,0.9000X0.7000*%
%ADD20R,0.7000X1.2000*%
%ADD21O,0.4000X1.6000*%
%ADD22R,1.4000X1.1000*%
%ADD23R,1.1000X1.4000*%
%ADD24R,2.3000X2.3000*%
%ADD25R,0.7000X0.9000*%
%ADD26R,6.3000X2.2000*%
%ADD27R,0.6000X1.2000*%
G04:AMPARAMS|DCode=28|XSize=1.8mm|YSize=0.6mm|CornerRadius=0.3mm|HoleSize=0mm|Usage=FLASHONLY|Rotation=270.000|XOffset=0mm|YOffset=0mm|HoleType=Round|Shape=RoundedRectangle|*
%AMROUNDEDRECTD28*
21,1,1.8000,0.0000,0,0,270.0*
21,1,1.2000,0.6000,0,0,270.0*
1,1,0.6000,0.0000,-0.6000*
1,1,0.6000,0.0000,0.6000*
1,1,0.6000,0.0000,0.6000*
1,1,0.6000,0.0000,-0.6000*
%
%ADD28ROUNDEDRECTD28*%
%ADD29R,1.2000X1.1000*%
%ADD30R,1.2700X1.2700*%
%ADD52C,0.3000*%
%ADD53C,0.5000*%
%ADD54C,1.3500*%
%ADD55R,1.3500X1.3500*%
%ADD56C,1.5000*%
%ADD57R,1.5000X1.5000*%
%ADD58R,1.4000X1.4000*%
%ADD59C,1.4000*%
%ADD60C,1.2700*%
G36*
X313460Y357460D02*
X319361D01*
Y355500D01*
X319753Y353534D01*
X320866Y351866D01*
X321460Y351273D01*
Y341460D01*
X335265D01*
X335502Y340835D01*
X334602Y339695D01*
X322422D01*
X320935Y339399D01*
X319675Y338557D01*
X310253Y329135D01*
X309411Y327875D01*
X309115Y326388D01*
Y300040D01*
X299460D01*
Y298139D01*
X218001D01*
X204353Y311787D01*
X204839Y312960D01*
X217040D01*
Y324773D01*
X254128Y361861D01*
X313460D01*
Y357460D01*
D02*
G37*
G36*
X439110Y299830D02*
X439716Y297569D01*
X440886Y295541D01*
X441634Y294793D01*
X441596Y294341D01*
X441178Y293454D01*
X439950Y293210D01*
X438614Y292317D01*
X433916Y287619D01*
X429040D01*
Y289540D01*
X422304D01*
X421913Y290126D01*
X416126Y295913D01*
X414790Y296806D01*
X413213Y297119D01*
X380488D01*
X379962Y298389D01*
X381114Y299541D01*
X382023Y301115D01*
X439110D01*
Y299830D01*
D02*
G37*
G36*
X401960Y284369D02*
X326540D01*
Y285960D01*
Y288881D01*
X401960D01*
Y284369D01*
D02*
G37*
G36*
X500000Y159295D02*
X498730Y158909D01*
X498674Y158994D01*
X492233Y165434D01*
X492540Y166578D01*
Y169222D01*
X491856Y171775D01*
X490534Y174065D01*
X488665Y175934D01*
X486375Y177256D01*
X483822Y177940D01*
X481178D01*
X478625Y177256D01*
X476335Y175934D01*
X474466Y174065D01*
X473144Y171775D01*
X472460Y169222D01*
Y166578D01*
X473144Y164025D01*
X474466Y161735D01*
X476335Y159866D01*
X478625Y158544D01*
X481178Y157860D01*
X483822D01*
X484966Y158167D01*
X489901Y153231D01*
Y150957D01*
X488728Y150471D01*
X488665Y150534D01*
X486375Y151856D01*
X483822Y152540D01*
X481178D01*
X478625Y151856D01*
X476335Y150534D01*
X474466Y148665D01*
X473144Y146375D01*
X472460Y143822D01*
Y141619D01*
X461040D01*
Y144540D01*
X448960D01*
Y130460D01*
Y117560D01*
X461040D01*
Y120481D01*
X471323D01*
X472655Y119149D01*
X472460Y118422D01*
Y115778D01*
X473144Y113225D01*
X474466Y110935D01*
X474849Y110552D01*
X474363Y109379D01*
X469240D01*
X467273Y108988D01*
X465606Y107874D01*
X445371Y87639D01*
X415044D01*
X414162Y88909D01*
X414379Y90000D01*
Y102000D01*
X414027Y103771D01*
X413869Y104007D01*
Y113540D01*
X413556Y115117D01*
X412663Y116453D01*
X411619Y117497D01*
Y120000D01*
X411619Y120000D01*
Y123960D01*
X414540D01*
Y133844D01*
X414875Y133911D01*
X416135Y134753D01*
X419747Y138365D01*
X420589Y139625D01*
X420885Y141112D01*
Y147581D01*
X422155Y147961D01*
X423541Y146574D01*
X424881Y145801D01*
Y131000D01*
X425194Y129424D01*
X426087Y128087D01*
X431110Y123065D01*
X432446Y122172D01*
X433960Y121871D01*
Y117560D01*
X446040D01*
Y130460D01*
Y144540D01*
X444119D01*
Y162113D01*
X445459Y162886D01*
X447114Y164541D01*
X448284Y166569D01*
X448890Y168830D01*
Y171170D01*
X448284Y173431D01*
X447114Y175459D01*
X445459Y177114D01*
X443431Y178284D01*
X441170Y178890D01*
X438830D01*
X436569Y178284D01*
X434541Y177114D01*
X432886Y175459D01*
X431716Y173431D01*
X431110Y171170D01*
Y168830D01*
X431716Y166569D01*
X432886Y164541D01*
X434541Y162886D01*
X435710Y162212D01*
X435688Y161252D01*
X434498Y160762D01*
X434459Y160801D01*
X432431Y161972D01*
X430170Y162578D01*
X427830D01*
X425569Y161972D01*
X423541Y160801D01*
X422155Y159415D01*
X420885Y159794D01*
Y170693D01*
X423747Y173556D01*
X424589Y174816D01*
X424885Y176302D01*
Y208863D01*
X424589Y210350D01*
X423747Y211610D01*
X415414Y219943D01*
X415832Y221321D01*
X415953Y221345D01*
X417213Y222187D01*
X450681Y255655D01*
X451523Y256915D01*
X451819Y258402D01*
Y265912D01*
X452955Y266568D01*
X454225Y265978D01*
Y249390D01*
X454521Y247903D01*
X455363Y246643D01*
X473141Y228865D01*
X472460Y226322D01*
Y223678D01*
X473144Y221125D01*
X474466Y218835D01*
X476335Y216966D01*
X478625Y215644D01*
X481178Y214960D01*
X483822D01*
X486375Y215644D01*
X488665Y216966D01*
X488747Y217049D01*
X489921Y216563D01*
Y212846D01*
X486715Y209640D01*
X472460D01*
Y189560D01*
X492540D01*
Y203815D01*
X496953Y208227D01*
X497846Y209564D01*
X498159Y211140D01*
Y229780D01*
X497846Y231356D01*
X496953Y232693D01*
X488716Y240929D01*
X488665Y242366D01*
X490534Y244235D01*
X491856Y246525D01*
X492540Y249078D01*
Y251722D01*
X491856Y254275D01*
X490534Y256565D01*
X488665Y258434D01*
X486375Y259756D01*
X483822Y260440D01*
X481178D01*
X480034Y260133D01*
X475099Y265068D01*
Y267343D01*
X476272Y267829D01*
X476335Y267766D01*
X478625Y266444D01*
X481178Y265760D01*
X481230D01*
Y275800D01*
Y285840D01*
X481178D01*
X478625Y285156D01*
X476335Y283834D01*
X476272Y283771D01*
X475099Y284257D01*
Y284799D01*
X475139Y285000D01*
Y292071D01*
X479727Y296660D01*
X492540D01*
Y316740D01*
X472460D01*
Y303927D01*
X466366Y297834D01*
X465252Y296166D01*
X464861Y294200D01*
Y286506D01*
X463591Y285980D01*
X457255Y292317D01*
X455918Y293210D01*
X454801Y293432D01*
X454355Y294522D01*
X454359Y294786D01*
X455114Y295541D01*
X456284Y297569D01*
X456890Y299830D01*
Y302170D01*
X456284Y304431D01*
X455114Y306459D01*
X453459Y308114D01*
X451431Y309284D01*
X449170Y309890D01*
X446830D01*
X444569Y309284D01*
X443028Y308395D01*
X442737Y308589D01*
X441251Y308885D01*
X382023D01*
X381114Y310459D01*
X379459Y312114D01*
X377431Y313284D01*
X375170Y313890D01*
X372830D01*
X370569Y313284D01*
X368541Y312114D01*
X366886Y310459D01*
X365716Y308431D01*
X365110Y306170D01*
Y303830D01*
X365716Y301569D01*
X366886Y299541D01*
X368038Y298389D01*
X367512Y297119D01*
X326540D01*
Y300040D01*
X324619D01*
Y314794D01*
X327285Y317460D01*
X349230D01*
Y326000D01*
X350500D01*
Y327270D01*
X356540D01*
Y334540D01*
X352916D01*
X352680Y335694D01*
X352704Y335810D01*
X354494Y337006D01*
X355719Y338838D01*
X356148Y341000D01*
Y353000D01*
X355719Y355162D01*
X355047Y356167D01*
Y359235D01*
X356431Y359606D01*
X358459Y360776D01*
X360114Y362431D01*
X361284Y364459D01*
X361890Y366720D01*
Y369060D01*
X361284Y371321D01*
X360114Y373349D01*
X358459Y375004D01*
X356431Y376174D01*
X354170Y376780D01*
X351830D01*
X349569Y376174D01*
X347541Y375004D01*
X345886Y373349D01*
X345810Y373217D01*
X344540Y373557D01*
Y376540D01*
X337770D01*
Y367000D01*
X335230D01*
Y376540D01*
X313460D01*
Y372139D01*
X252000D01*
X250033Y371748D01*
X248366Y370634D01*
X209773Y332040D01*
X197960D01*
Y319839D01*
X196787Y319353D01*
X146506Y369634D01*
X144839Y370748D01*
X142872Y371139D01*
X101540D01*
Y379540D01*
X33460D01*
Y352460D01*
X101540D01*
Y360861D01*
X140744D01*
X212239Y289366D01*
X213906Y288252D01*
X215872Y287861D01*
X299460D01*
Y272960D01*
X300361D01*
Y253756D01*
X293326Y246721D01*
X292212Y245054D01*
X291821Y243088D01*
Y206912D01*
X292212Y204946D01*
X293326Y203279D01*
X303169Y193436D01*
X236366Y126634D01*
X235252Y124966D01*
X234861Y123000D01*
Y84540D01*
X230460D01*
Y72727D01*
X205371Y47639D01*
X132040D01*
Y48540D01*
X117960D01*
Y36460D01*
X132040D01*
Y37361D01*
X207500D01*
X209466Y37752D01*
X211134Y38866D01*
X237727Y65460D01*
X242273D01*
X257906Y49826D01*
X259573Y48713D01*
X261540Y48321D01*
X358411D01*
X382460Y24273D01*
Y12460D01*
X404230D01*
Y22000D01*
X405500D01*
Y23270D01*
X413540D01*
Y28901D01*
X417331D01*
X418960Y27273D01*
Y20460D01*
X431040D01*
Y29975D01*
X432213Y30461D01*
X433960Y28715D01*
Y20460D01*
X440215D01*
X446087Y14587D01*
X447424Y13694D01*
X449000Y13381D01*
X472460D01*
Y7460D01*
X492540D01*
Y27540D01*
X472460D01*
Y21619D01*
X450706D01*
X446040Y26285D01*
Y34540D01*
X439785D01*
X430833Y43493D01*
X429496Y44386D01*
X427920Y44699D01*
X414532D01*
X413853Y45969D01*
X414027Y46229D01*
X414379Y48000D01*
Y52730D01*
X409750D01*
Y54000D01*
X408480D01*
Y64376D01*
X407979Y64277D01*
X406500Y63289D01*
X405021Y64277D01*
X404520Y64376D01*
Y54000D01*
X401980D01*
Y64376D01*
X401479Y64277D01*
X400000Y63289D01*
X398521Y64277D01*
X396750Y64629D01*
X394979Y64277D01*
X393500Y63289D01*
X392021Y64277D01*
X390250Y64629D01*
X388479Y64277D01*
X386977Y63273D01*
X385973Y61771D01*
X385621Y60000D01*
Y58599D01*
X359000D01*
Y81000D01*
Y164268D01*
X360270Y164609D01*
X360886Y163541D01*
X362541Y161886D01*
X364569Y160716D01*
X366830Y160110D01*
X369170D01*
X371431Y160716D01*
X373459Y161886D01*
X375114Y163541D01*
X376284Y165569D01*
X376890Y167830D01*
Y170170D01*
X376284Y172431D01*
X375114Y174459D01*
X373459Y176114D01*
X372119Y176887D01*
Y215482D01*
X391567Y234930D01*
X393011Y234734D01*
X393370Y234066D01*
X393097Y233504D01*
X392709Y232924D01*
X392376Y231250D01*
X392709Y229576D01*
X393097Y228996D01*
X393581Y228000D01*
X393097Y227004D01*
X392709Y226424D01*
X392376Y224750D01*
X392709Y223076D01*
X393097Y222496D01*
X393581Y221500D01*
X393097Y220504D01*
X392709Y219924D01*
X392376Y218250D01*
X392709Y216576D01*
X392971Y216184D01*
X392632Y214431D01*
X392456Y214313D01*
X379753Y201610D01*
X378911Y200350D01*
X378615Y198863D01*
Y151040D01*
X375460D01*
Y138960D01*
X391121D01*
X391411Y137501D01*
X391539Y137310D01*
X390860Y136040D01*
X375460D01*
Y123960D01*
X378381D01*
Y122000D01*
X378694Y120424D01*
X379587Y119087D01*
X390875Y107800D01*
X390250Y106629D01*
X388479Y106277D01*
X386977Y105273D01*
X385973Y103771D01*
X385649Y102139D01*
X382540D01*
Y106040D01*
X363460D01*
Y89960D01*
Y84270D01*
X373000D01*
X382540D01*
Y91861D01*
X384297D01*
Y85564D01*
X384688Y83597D01*
X385802Y81930D01*
X388866Y78866D01*
X390533Y77752D01*
X392500Y77361D01*
X447500D01*
X449467Y77752D01*
X451134Y78866D01*
X471190Y98923D01*
X472460Y98670D01*
Y92970D01*
X482500D01*
X492540D01*
Y101740D01*
X492540Y101740D01*
X492540D01*
X493146Y102745D01*
X498674Y108272D01*
X498730Y108357D01*
X500000Y107971D01*
Y0D01*
X0D01*
Y400000D01*
X500000D01*
Y159295D01*
D02*
G37*
G36*
X372766Y274861D02*
X371716Y273041D01*
X371110Y270780D01*
Y268440D01*
X371716Y266179D01*
X372886Y264151D01*
X374541Y262496D01*
X375881Y261723D01*
Y250488D01*
X374611Y249961D01*
X373459Y251114D01*
X371431Y252284D01*
X369170Y252890D01*
X366830D01*
X364569Y252284D01*
X362541Y251114D01*
X360886Y249459D01*
X360202Y248274D01*
X354950D01*
X354924Y248291D01*
X353250Y248624D01*
X339750D01*
X338389Y248353D01*
X337119Y249063D01*
Y261723D01*
X338459Y262496D01*
X340114Y264151D01*
X341284Y266179D01*
X341890Y268440D01*
Y270780D01*
X341284Y273041D01*
X340234Y274861D01*
X340657Y276131D01*
X372343D01*
X372766Y274861D01*
D02*
G37*
G36*
X410101Y276935D02*
X410853Y275810D01*
X410620Y274895D01*
X410473Y274540D01*
X401960D01*
Y262460D01*
X404881D01*
Y257696D01*
X405194Y256119D01*
X406087Y254783D01*
X411126Y249745D01*
X410500Y248574D01*
X410250Y248624D01*
X396750D01*
X395076Y248291D01*
X395050Y248274D01*
X394966D01*
X393390Y247960D01*
X392053Y247067D01*
X385196Y240210D01*
X384025Y240835D01*
X384119Y241306D01*
Y261723D01*
X385459Y262496D01*
X387114Y264151D01*
X388284Y266179D01*
X388890Y268440D01*
Y270780D01*
X388284Y273041D01*
X387234Y274861D01*
X387657Y276131D01*
X404750D01*
X406326Y276444D01*
X407663Y277337D01*
X407785Y277460D01*
X409997D01*
X410101Y276935D01*
D02*
G37*
G36*
X314253Y278253D02*
X314460Y278115D01*
Y272960D01*
X323651D01*
X324424Y271952D01*
X324110Y270780D01*
Y268440D01*
X324716Y266179D01*
X325886Y264151D01*
X327541Y262496D01*
X328881Y261723D01*
Y243540D01*
X316960D01*
Y243540D01*
X316540Y243540D01*
Y243540D01*
X306339D01*
X305853Y244713D01*
X309134Y247994D01*
X310248Y249661D01*
X310639Y251628D01*
Y272960D01*
X311540D01*
Y279307D01*
X312713Y279793D01*
X314253Y278253D01*
D02*
G37*
G36*
X438065Y272781D02*
X438924Y272465D01*
X439180Y272258D01*
X439650Y270503D01*
X440820Y268476D01*
X442476Y266820D01*
X444050Y265912D01*
Y260011D01*
X427292Y243254D01*
X426119Y243740D01*
Y262460D01*
X429040D01*
Y271925D01*
X435442D01*
X436928Y272221D01*
X437774Y272786D01*
X438065Y272781D01*
D02*
G37*
G36*
X364750Y219596D02*
X364194Y218765D01*
X363881Y217188D01*
Y176887D01*
X362541Y176114D01*
X360886Y174459D01*
X360270Y173391D01*
X359000Y173731D01*
Y180000D01*
X341068D01*
X340998Y180106D01*
X341679Y181376D01*
X353250D01*
X354924Y181709D01*
X356343Y182657D01*
X357291Y184076D01*
X357624Y185750D01*
X357291Y187424D01*
X356903Y188004D01*
X356419Y189000D01*
X356903Y189996D01*
X357291Y190576D01*
X357624Y192250D01*
X357291Y193924D01*
X356903Y194504D01*
X356419Y195500D01*
X356903Y196496D01*
X357291Y197076D01*
X357624Y198750D01*
X357291Y200424D01*
X356903Y201004D01*
X356419Y202000D01*
X356903Y202996D01*
X357291Y203576D01*
X357371Y203980D01*
X346500D01*
Y206520D01*
X357371D01*
X357291Y206924D01*
X356343Y208343D01*
Y208657D01*
X357291Y210076D01*
X357624Y211750D01*
X357291Y213424D01*
X356903Y214004D01*
X356419Y215000D01*
X356903Y215996D01*
X357291Y216576D01*
X357624Y218250D01*
X357403Y219361D01*
X358230Y220631D01*
X363444D01*
X363986Y220739D01*
X364750Y219596D01*
D02*
G37*
G36*
X392796Y202018D02*
X393215Y201248D01*
X393097Y201004D01*
X392709Y200424D01*
X392376Y198750D01*
X392709Y197076D01*
X393097Y196496D01*
X393581Y195500D01*
X393097Y194504D01*
X392709Y193924D01*
X392376Y192250D01*
X392709Y190576D01*
X393097Y189996D01*
X393581Y189000D01*
X393097Y188004D01*
X392709Y187424D01*
X392376Y185750D01*
X392709Y184076D01*
X393657Y182657D01*
X395076Y181709D01*
X396750Y181376D01*
X410250D01*
X411327Y180494D01*
X411375Y179355D01*
X404753Y172733D01*
X403911Y171473D01*
X403615Y169986D01*
Y151040D01*
X386385D01*
Y197254D01*
X391343Y202212D01*
X392796Y202018D01*
D02*
G37*
G36*
X489901Y134043D02*
Y125557D01*
X488728Y125071D01*
X488665Y125134D01*
X486375Y126456D01*
X483822Y127140D01*
X481178D01*
X478625Y126456D01*
X477594Y125861D01*
X475942Y127513D01*
X474606Y128406D01*
X473030Y128719D01*
X461040D01*
Y133381D01*
X474253D01*
X475829Y133694D01*
X476683Y134265D01*
X478625Y133144D01*
X481178Y132460D01*
X483822D01*
X486375Y133144D01*
X488665Y134466D01*
X488728Y134529D01*
X489901Y134043D01*
D02*
G37*
G36*
X385621Y48000D02*
X385973Y46229D01*
X386977Y44727D01*
X388479Y43723D01*
X390250Y43371D01*
X392021Y43723D01*
X392879Y44297D01*
X393136Y44191D01*
X394029Y42854D01*
X396786Y40097D01*
X396417Y38881D01*
X395946Y38788D01*
X394279Y37674D01*
X389866Y33261D01*
X389677Y32978D01*
X388413Y32854D01*
X374119Y47148D01*
X374605Y48321D01*
X385621D01*
Y48000D01*
D02*
G37*
%LPC*%
G36*
X483822Y392940D02*
X481178D01*
X478625Y392256D01*
X476335Y390934D01*
X474466Y389065D01*
X473144Y386775D01*
X472460Y384222D01*
Y381578D01*
X473144Y379025D01*
X473530Y378356D01*
X452563Y357389D01*
X451390Y357875D01*
Y359090D01*
X433610D01*
Y355119D01*
X396390D01*
Y359090D01*
X378610D01*
Y354319D01*
X377200D01*
X375624Y354006D01*
X374927Y353540D01*
X361460D01*
Y337460D01*
Y331770D01*
X371000D01*
Y330500D01*
X372270D01*
Y322460D01*
X378610D01*
Y315910D01*
X386230D01*
Y324800D01*
Y333690D01*
X380540D01*
Y341310D01*
X396390D01*
Y346881D01*
X433610D01*
Y341310D01*
X451390D01*
Y345958D01*
X452576Y346194D01*
X453913Y347087D01*
X480001Y373176D01*
X481178Y372860D01*
X483822D01*
X486375Y373544D01*
X488665Y374866D01*
X490534Y376735D01*
X491856Y379025D01*
X492540Y381578D01*
Y384222D01*
X491856Y386775D01*
X490534Y389065D01*
X488665Y390934D01*
X486375Y392256D01*
X483822Y392940D01*
D02*
G37*
G36*
Y367540D02*
X483770D01*
Y358770D01*
X492540D01*
Y358822D01*
X491856Y361375D01*
X490534Y363665D01*
X488665Y365534D01*
X486375Y366856D01*
X483822Y367540D01*
D02*
G37*
G36*
X481230D02*
X481178D01*
X478625Y366856D01*
X476335Y365534D01*
X474466Y363665D01*
X473144Y361375D01*
X472460Y358822D01*
Y358770D01*
X481230D01*
Y367540D01*
D02*
G37*
G36*
X492540Y356230D02*
X483770D01*
Y347460D01*
X483822D01*
X486375Y348144D01*
X488665Y349466D01*
X490534Y351335D01*
X491856Y353625D01*
X492540Y356178D01*
Y356230D01*
D02*
G37*
G36*
X481230D02*
X472460D01*
Y356178D01*
X473144Y353625D01*
X474466Y351335D01*
X476335Y349466D01*
X478625Y348144D01*
X481178Y347460D01*
X481230D01*
Y356230D01*
D02*
G37*
G36*
X451390Y333690D02*
X443770D01*
Y326070D01*
X451390D01*
Y333690D01*
D02*
G37*
G36*
X396390D02*
X388770D01*
Y326070D01*
X396390D01*
Y333690D01*
D02*
G37*
G36*
X441230D02*
X433610D01*
Y326070D01*
X441230D01*
Y333690D01*
D02*
G37*
G36*
X158770Y332036D02*
Y323770D01*
X167036D01*
X166390Y326182D01*
X165134Y328358D01*
X163358Y330134D01*
X161182Y331390D01*
X158770Y332036D01*
D02*
G37*
G36*
X156230D02*
X153818Y331390D01*
X151642Y330134D01*
X149866Y328358D01*
X148610Y326182D01*
X147964Y323770D01*
X156230D01*
Y332036D01*
D02*
G37*
G36*
X369730Y329230D02*
X361460D01*
Y322460D01*
X369730D01*
Y329230D01*
D02*
G37*
G36*
X483822Y342140D02*
X481178D01*
X478625Y341456D01*
X476335Y340134D01*
X474466Y338265D01*
X473144Y335975D01*
X472460Y333422D01*
Y330778D01*
X473144Y328225D01*
X474466Y325935D01*
X476335Y324066D01*
X478625Y322744D01*
X481178Y322060D01*
X483822D01*
X486375Y322744D01*
X488665Y324066D01*
X490534Y325935D01*
X491856Y328225D01*
X492540Y330778D01*
Y333422D01*
X491856Y335975D01*
X490534Y338265D01*
X488665Y340134D01*
X486375Y341456D01*
X483822Y342140D01*
D02*
G37*
G36*
X356540Y324730D02*
X351770D01*
Y317460D01*
X356540D01*
Y324730D01*
D02*
G37*
G36*
X451390Y323530D02*
X443770D01*
Y315910D01*
X451390D01*
Y323530D01*
D02*
G37*
G36*
X441230D02*
X433610D01*
Y315910D01*
X441230D01*
Y323530D01*
D02*
G37*
G36*
X396390D02*
X388770D01*
Y315910D01*
X396390D01*
Y323530D01*
D02*
G37*
G36*
X167036Y321230D02*
X158770D01*
Y312964D01*
X161182Y313610D01*
X163358Y314866D01*
X165134Y316642D01*
X166390Y318818D01*
X167036Y321230D01*
D02*
G37*
G36*
X156230D02*
X147964D01*
X148610Y318818D01*
X149866Y316642D01*
X151642Y314866D01*
X153818Y313610D01*
X156230Y312964D01*
Y321230D01*
D02*
G37*
G36*
X483822Y285840D02*
X483770D01*
Y277070D01*
X492540D01*
Y277122D01*
X491856Y279675D01*
X490534Y281965D01*
X488665Y283834D01*
X486375Y285156D01*
X483822Y285840D01*
D02*
G37*
G36*
X492540Y274530D02*
X483770D01*
Y265760D01*
X483822D01*
X486375Y266444D01*
X488665Y267766D01*
X490534Y269635D01*
X491856Y271925D01*
X492540Y274478D01*
Y274530D01*
D02*
G37*
G36*
X101540Y338540D02*
X33460D01*
Y311460D01*
X93381D01*
Y304213D01*
X93694Y302637D01*
X94587Y301301D01*
X95175Y300713D01*
X94689Y299540D01*
X33460D01*
Y272460D01*
X95715D01*
X98921Y269254D01*
Y258540D01*
X33460D01*
Y235898D01*
X33381Y235500D01*
Y231706D01*
X23603Y221929D01*
X21322Y222540D01*
X18678D01*
X16125Y221856D01*
X13835Y220534D01*
X11966Y218665D01*
X10644Y216375D01*
X9960Y213822D01*
Y211178D01*
X10644Y208625D01*
X11966Y206335D01*
X13835Y204466D01*
X16125Y203144D01*
X18678Y202460D01*
X21322D01*
X23603Y203071D01*
X28361Y198313D01*
X27875Y197140D01*
X21270D01*
Y188370D01*
X30040D01*
Y194975D01*
X31213Y195461D01*
X38381Y188294D01*
Y162040D01*
X36460D01*
Y153785D01*
X33297Y150623D01*
X32404Y149286D01*
X32091Y147710D01*
Y123640D01*
X32404Y122064D01*
X33297Y120727D01*
X37710Y116315D01*
Y110560D01*
X37710Y110560D01*
Y109440D01*
X37710D01*
X37710Y109290D01*
Y97860D01*
X37710D01*
Y96740D01*
X37710D01*
Y92220D01*
X47880D01*
Y90950D01*
X49150D01*
Y85160D01*
X51199D01*
X51685Y83987D01*
X46713Y79015D01*
X45660Y78806D01*
X44324Y77913D01*
X33297Y66886D01*
X32404Y65550D01*
X32091Y63973D01*
Y28240D01*
X32404Y26664D01*
X33297Y25327D01*
X37710Y20915D01*
Y15160D01*
X58050D01*
Y26590D01*
X58050Y26740D01*
X58050D01*
Y27860D01*
X58050D01*
Y39440D01*
X58050D01*
Y40560D01*
X58050D01*
Y42675D01*
X59234Y43466D01*
X83727Y67960D01*
X88540D01*
Y82040D01*
X87639D01*
Y112609D01*
X90777Y115747D01*
X91950Y115261D01*
Y110710D01*
X91950Y110560D01*
Y109440D01*
X91950Y109290D01*
Y98010D01*
X91950Y97860D01*
Y96740D01*
X91950Y96590D01*
Y92220D01*
X112290D01*
Y96590D01*
X112290Y96740D01*
Y97860D01*
X112290Y98010D01*
Y109290D01*
X112290Y109440D01*
Y110560D01*
X112290Y110710D01*
Y122140D01*
X112290D01*
Y122641D01*
X113290Y123911D01*
X124050D01*
X126017Y124302D01*
X127684Y125416D01*
X138634Y136366D01*
X139748Y138034D01*
X140139Y140000D01*
Y153460D01*
X149040D01*
Y162361D01*
X212500D01*
X214466Y162752D01*
X216134Y163866D01*
X237977Y185710D01*
X249290D01*
Y204290D01*
X230710D01*
Y192977D01*
X210371Y172639D01*
X149040D01*
Y181540D01*
X120960D01*
Y153460D01*
X129861D01*
Y142128D01*
X121922Y134189D01*
X112290D01*
Y134840D01*
X108067D01*
X107581Y136013D01*
X110413Y138845D01*
X111306Y140181D01*
X111619Y141757D01*
Y188250D01*
X111306Y189826D01*
X110413Y191163D01*
X106290Y195285D01*
Y217540D01*
X97911D01*
X97385Y218810D01*
X98876Y220301D01*
X102968D01*
X104544Y220614D01*
X105881Y221507D01*
X111493Y227119D01*
X112386Y228456D01*
X112699Y230032D01*
Y293133D01*
X112386Y294710D01*
X111493Y296046D01*
X101619Y305920D01*
Y315500D01*
X101540Y315898D01*
Y338540D01*
D02*
G37*
G36*
X151290Y217540D02*
X138520D01*
Y204770D01*
X151290D01*
Y217540D01*
D02*
G37*
G36*
X135980D02*
X123210D01*
Y204770D01*
X135980D01*
Y217540D01*
D02*
G37*
G36*
X191270Y204277D02*
Y196270D01*
X199277D01*
X198657Y198586D01*
X197434Y200704D01*
X195704Y202434D01*
X193586Y203657D01*
X191270Y204277D01*
D02*
G37*
G36*
X188730Y204277D02*
X186414Y203657D01*
X184296Y202434D01*
X182566Y200704D01*
X181343Y198586D01*
X180723Y196270D01*
X188730D01*
Y204277D01*
D02*
G37*
G36*
X151290Y202230D02*
X138520D01*
Y189460D01*
X151290D01*
Y202230D01*
D02*
G37*
G36*
X135980D02*
X123210D01*
Y189460D01*
X135980D01*
Y202230D01*
D02*
G37*
G36*
X18730Y197140D02*
X9960D01*
Y188370D01*
X18730D01*
Y197140D01*
D02*
G37*
G36*
X199277Y193730D02*
X191270D01*
Y185723D01*
X193586Y186343D01*
X195704Y187566D01*
X197434Y189296D01*
X198657Y191414D01*
X199277Y193730D01*
D02*
G37*
G36*
X188730D02*
X180723D01*
X181343Y191414D01*
X182566Y189296D01*
X184296Y187566D01*
X186414Y186343D01*
X188730Y185723D01*
Y193730D01*
D02*
G37*
G36*
X30040Y185830D02*
X21270D01*
Y177060D01*
X30040D01*
Y185830D01*
D02*
G37*
G36*
X18730D02*
X9960D01*
Y177060D01*
X18730D01*
Y185830D01*
D02*
G37*
G36*
X132040Y98540D02*
X126270D01*
Y93770D01*
X132040D01*
Y98540D01*
D02*
G37*
G36*
X123730D02*
X117960D01*
Y93770D01*
X123730D01*
Y98540D01*
D02*
G37*
G36*
X132040Y91230D02*
X126270D01*
Y86460D01*
X132040D01*
Y91230D01*
D02*
G37*
G36*
X123730D02*
X117960D01*
Y86460D01*
X123730D01*
Y91230D01*
D02*
G37*
G36*
X112290Y89680D02*
X103390D01*
Y85160D01*
X112290D01*
Y89680D01*
D02*
G37*
G36*
X100850D02*
X91950D01*
Y85160D01*
X100850D01*
Y89680D01*
D02*
G37*
G36*
X46610D02*
X37710D01*
Y85160D01*
X46610D01*
Y89680D01*
D02*
G37*
G36*
X492540Y90430D02*
X483770D01*
Y81660D01*
X492540D01*
Y90430D01*
D02*
G37*
G36*
X481230D02*
X472460D01*
Y81660D01*
X481230D01*
Y90430D01*
D02*
G37*
G36*
X191270Y84536D02*
Y76270D01*
X199536D01*
X198890Y78682D01*
X197634Y80858D01*
X195858Y82634D01*
X193682Y83890D01*
X191270Y84536D01*
D02*
G37*
G36*
X188730D02*
X186318Y83890D01*
X184142Y82634D01*
X182366Y80858D01*
X181110Y78682D01*
X180464Y76270D01*
X188730D01*
Y84536D01*
D02*
G37*
G36*
X382540Y81730D02*
X374270D01*
Y74960D01*
X382540D01*
Y81730D01*
D02*
G37*
G36*
X371730D02*
X363460D01*
Y74960D01*
X371730D01*
Y81730D01*
D02*
G37*
G36*
X199536Y73730D02*
X191270D01*
Y65464D01*
X193682Y66110D01*
X195858Y67366D01*
X197634Y69142D01*
X198890Y71318D01*
X199536Y73730D01*
D02*
G37*
G36*
X188730D02*
X180464D01*
X181110Y71318D01*
X182366Y69142D01*
X184142Y67366D01*
X186318Y66110D01*
X188730Y65464D01*
Y73730D01*
D02*
G37*
G36*
X132040Y83540D02*
X117960D01*
Y71460D01*
X119861D01*
Y63540D01*
X117960D01*
Y62394D01*
X112290D01*
Y64840D01*
X91950D01*
Y53410D01*
X91950Y53260D01*
Y52140D01*
X91950Y51990D01*
Y40710D01*
X91950Y40560D01*
Y39440D01*
X91950Y39290D01*
Y28010D01*
X91950Y27860D01*
Y26740D01*
X91950Y26590D01*
Y22220D01*
X112290D01*
Y26590D01*
X112290Y26740D01*
Y27860D01*
X112290Y28010D01*
Y39290D01*
X112290Y39440D01*
Y40560D01*
X112290Y40710D01*
Y51990D01*
X112290Y52140D01*
Y53260D01*
X113251Y54156D01*
X117960D01*
Y51460D01*
X132040D01*
Y63540D01*
X130139D01*
Y71460D01*
X132040D01*
Y83540D01*
D02*
G37*
G36*
X411020Y64376D02*
Y55270D01*
X414379D01*
Y60000D01*
X414027Y61771D01*
X413023Y63273D01*
X411521Y64277D01*
X411020Y64376D01*
D02*
G37*
G36*
X483822Y52940D02*
X483770D01*
Y44170D01*
X492540D01*
Y44222D01*
X491856Y46775D01*
X490534Y49065D01*
X488665Y50934D01*
X486375Y52256D01*
X483822Y52940D01*
D02*
G37*
G36*
X481230D02*
X481178D01*
X478625Y52256D01*
X476335Y50934D01*
X474466Y49065D01*
X473144Y46775D01*
X472460Y44222D01*
Y44170D01*
X481230D01*
Y52940D01*
D02*
G37*
G36*
X492540Y41630D02*
X483770D01*
Y32860D01*
X483822D01*
X486375Y33544D01*
X488665Y34866D01*
X490534Y36735D01*
X491856Y39025D01*
X492540Y41578D01*
Y41630D01*
D02*
G37*
G36*
X481230D02*
X472460D01*
Y41578D01*
X473144Y39025D01*
X474466Y36735D01*
X476335Y34866D01*
X478625Y33544D01*
X481178Y32860D01*
X481230D01*
Y41630D01*
D02*
G37*
G36*
X112290Y19680D02*
X103390D01*
Y15160D01*
X112290D01*
Y19680D01*
D02*
G37*
G36*
X100850D02*
X91950D01*
Y15160D01*
X100850D01*
Y19680D01*
D02*
G37*
G36*
X413540Y20730D02*
X406770D01*
Y12460D01*
X413540D01*
Y20730D01*
D02*
G37*
%LPD*%
G36*
X103381Y186544D02*
Y181540D01*
X81785D01*
X80829Y182496D01*
Y189460D01*
X100465D01*
X103381Y186544D01*
D02*
G37*
G36*
X84498Y230287D02*
X73797Y219586D01*
X72904Y218250D01*
X72591Y216673D01*
Y180790D01*
X72904Y179214D01*
X73797Y177877D01*
X75960Y175715D01*
Y153460D01*
X85881D01*
Y143096D01*
X64092Y121308D01*
X64092Y121308D01*
X59223Y116439D01*
X58050Y116925D01*
Y121990D01*
X58050Y122140D01*
X58050D01*
Y123260D01*
X58050D01*
Y129725D01*
X60413Y132087D01*
X61306Y133424D01*
X61619Y135000D01*
Y147960D01*
X63540D01*
Y162040D01*
X51460D01*
Y147960D01*
X53381D01*
Y136706D01*
X51515Y134840D01*
X40329D01*
Y146004D01*
X42285Y147960D01*
X48540D01*
Y162040D01*
X46619D01*
Y190000D01*
X46306Y191576D01*
X45413Y192913D01*
X29429Y208897D01*
X30040Y211178D01*
Y213822D01*
X29429Y216103D01*
X40413Y227087D01*
X41306Y228424D01*
X41619Y230000D01*
Y231460D01*
X84012D01*
X84498Y230287D01*
D02*
G37*
G36*
X77361Y113263D02*
Y82040D01*
X76460D01*
Y75227D01*
X74713Y73481D01*
X73540Y73967D01*
Y82040D01*
X63185D01*
X62659Y83310D01*
X73583Y94234D01*
X74476Y95570D01*
X74789Y97147D01*
Y112487D01*
X76091Y113789D01*
X77361Y113263D01*
D02*
G37*
D15*
X335190Y335810D02*
X339000Y332000D01*
Y326000D02*
Y332000D01*
X322422Y335810D02*
X335190D01*
X351162Y347662D02*
Y366052D01*
X353000Y367890D01*
X350500Y347000D02*
X351162Y347662D01*
X313000Y326388D02*
X322422Y335810D01*
X319500Y281000D02*
X320500Y280000D01*
X313000Y285000D02*
X317000Y281000D01*
X319500D01*
X313000Y285000D02*
Y326388D01*
X441251Y305000D02*
X445251Y301000D01*
X374000Y305000D02*
X441251D01*
X445251Y301000D02*
X448000D01*
X403500Y224500D02*
Y224750D01*
X403684Y224934D02*
X414466D01*
X447934Y258402D01*
Y273934D01*
X403500Y224750D02*
X403684Y224934D01*
X413388Y137500D02*
X417000Y141112D01*
X396488Y137500D02*
X413388D01*
X395000Y138988D02*
Y145000D01*
Y138988D02*
X396488Y137500D01*
X395000Y145000D02*
X395000Y145000D01*
X416302Y275810D02*
X435442D01*
X443726Y284094D01*
X452143D02*
X458110Y278127D01*
Y249390D02*
Y278127D01*
Y249390D02*
X482500Y225000D01*
Y225000D02*
Y225000D01*
X443726Y284094D02*
X452143D01*
X382500Y198863D02*
X395203Y211566D01*
X403316D01*
X382500Y145000D02*
Y198863D01*
X409000Y283500D02*
X410000D01*
X408000D02*
X409000D01*
X413690Y278422D02*
Y279810D01*
Y278422D02*
X416302Y275810D01*
X410000Y283500D02*
X413690Y279810D01*
X403500Y218250D02*
X403684Y218066D01*
X415810Y198756D02*
Y201053D01*
X411797Y218066D02*
X421000Y208863D01*
X403684Y218066D02*
X411797D01*
X421000Y176302D02*
Y208863D01*
X411797Y205066D02*
X415810Y201053D01*
Y178297D02*
Y198756D01*
X403684Y205066D02*
X411797D01*
X417000Y172302D02*
X421000Y176302D01*
X417000Y141112D02*
Y172302D01*
X407500Y169986D02*
X415810Y178297D01*
X407500Y145000D02*
Y169986D01*
X403500Y205250D02*
X403684Y205066D01*
X403316Y211566D02*
X403500Y211750D01*
D17*
Y185750D02*
D03*
Y192250D02*
D03*
Y198750D02*
D03*
Y205250D02*
D03*
Y211750D02*
D03*
Y218250D02*
D03*
Y224750D02*
D03*
Y231250D02*
D03*
Y237750D02*
D03*
Y244250D02*
D03*
X346500Y185750D02*
D03*
Y192250D02*
D03*
Y198750D02*
D03*
Y205250D02*
D03*
Y211750D02*
D03*
Y218250D02*
D03*
Y224750D02*
D03*
Y231250D02*
D03*
Y237750D02*
D03*
Y244250D02*
D03*
D18*
X102120Y59050D02*
D03*
Y46350D02*
D03*
Y33650D02*
D03*
Y20950D02*
D03*
X47880D02*
D03*
Y33650D02*
D03*
Y46350D02*
D03*
Y59050D02*
D03*
X102120Y129050D02*
D03*
Y116350D02*
D03*
Y103650D02*
D03*
Y90950D02*
D03*
X47880D02*
D03*
Y103650D02*
D03*
Y116350D02*
D03*
Y129050D02*
D03*
D19*
X422000Y268500D02*
D03*
Y283500D02*
D03*
X125000Y42500D02*
D03*
X382500Y130000D02*
D03*
Y145000D02*
D03*
X395000Y130000D02*
D03*
Y145000D02*
D03*
X407500Y130000D02*
D03*
Y145000D02*
D03*
X125000Y92500D02*
D03*
Y77500D02*
D03*
Y57500D02*
D03*
X324000Y222500D02*
D03*
Y237500D02*
D03*
X409000Y283500D02*
D03*
Y268500D02*
D03*
D20*
X327500Y350000D02*
D03*
X350500Y326000D02*
D03*
X327500D02*
D03*
D21*
X390250Y96000D02*
D03*
Y54000D02*
D03*
X409750Y96000D02*
D03*
X403250D02*
D03*
X396750D02*
D03*
X409750Y54000D02*
D03*
X403250D02*
D03*
X396750D02*
D03*
D22*
X373000Y98000D02*
D03*
X326000Y194500D02*
D03*
X371000Y345500D02*
D03*
Y330500D02*
D03*
X326000Y209500D02*
D03*
X373000Y83000D02*
D03*
D23*
X321500Y367000D02*
D03*
X390500Y22000D02*
D03*
X405500D02*
D03*
X336500Y367000D02*
D03*
D24*
X135000Y167500D02*
D03*
X90000D02*
D03*
X137250Y203500D02*
D03*
X92250D02*
D03*
D25*
X82500Y75000D02*
D03*
X425000Y27500D02*
D03*
X305500Y280000D02*
D03*
Y293000D02*
D03*
X67500Y75000D02*
D03*
X57500Y155000D02*
D03*
X42500D02*
D03*
X320500Y280000D02*
D03*
Y293000D02*
D03*
X440000Y137500D02*
D03*
X455000D02*
D03*
X440000Y124600D02*
D03*
X455000D02*
D03*
X440000Y27500D02*
D03*
D26*
X67500Y366000D02*
D03*
Y286000D02*
D03*
Y245000D02*
D03*
Y325000D02*
D03*
D27*
X339000Y326000D02*
D03*
Y350000D02*
D03*
D28*
X350500Y347000D02*
D03*
D29*
X308000Y214500D02*
D03*
Y235500D02*
D03*
D30*
X387500Y350200D02*
D03*
Y324800D02*
D03*
X442500D02*
D03*
Y350200D02*
D03*
D52*
X368000Y169000D02*
Y217188D01*
X394966Y244154D01*
X403250Y54000D02*
X409750D01*
X340500Y339500D02*
Y348500D01*
X339000Y350000D02*
X340500Y348500D01*
X350500Y326000D02*
Y328500D01*
X346040Y332960D02*
X350500Y328500D01*
X346040Y332960D02*
Y333960D01*
X340500Y339500D02*
X346040Y333960D01*
X339000Y350000D02*
Y364500D01*
X336500Y367000D02*
X339000Y364500D01*
X319500Y214500D02*
X324500Y209500D01*
X308000Y214500D02*
X319500D01*
X324500Y209500D02*
X326000D01*
X327500D02*
X331750Y205250D01*
X326000Y209500D02*
X327500D01*
X331750Y205250D02*
X346500D01*
X451000Y350000D02*
X482500Y381500D01*
X442700Y350000D02*
X451000D01*
X482500Y381500D02*
Y382900D01*
X320500Y293000D02*
Y316500D01*
X327500Y323500D01*
Y326000D01*
X413213Y293000D02*
X419000Y287213D01*
X320500Y293000D02*
X413213D01*
X387500Y350200D02*
X388300Y351000D01*
X372500Y345500D02*
X377200Y350200D01*
X371000Y345500D02*
X372500D01*
X377200Y350200D02*
X387500D01*
X320750Y280250D02*
X404750D01*
X408000Y283500D01*
X320500Y280000D02*
X320750Y280250D01*
X326000Y194500D02*
X327500D01*
X331750Y198750D02*
X346500D01*
X327500Y194500D02*
X331750Y198750D01*
X310000Y237500D02*
X324000D01*
X308000Y235500D02*
X310000Y237500D01*
X325787Y220713D02*
X333000D01*
X346404Y218346D02*
X346500Y218250D01*
X335368Y218346D02*
X346404D01*
X333000Y220713D02*
X335368Y218346D01*
X324000Y222500D02*
X325787Y220713D01*
X346596Y244154D02*
X367846D01*
X333000Y236312D02*
Y269610D01*
X403404Y244154D02*
X403500Y244250D01*
X346500D02*
X346596Y244154D01*
X346404Y231346D02*
X346500Y231250D01*
Y224750D02*
X363444D01*
X394966Y244154D02*
X403404D01*
X367846D02*
X368000Y244000D01*
X337966Y231346D02*
X346404D01*
X333000Y236312D02*
X337966Y231346D01*
X363444Y224750D02*
X380000Y241306D01*
Y269610D01*
X407500Y115790D02*
Y120000D01*
Y115790D02*
X409750Y113540D01*
X407500Y120000D02*
Y130000D01*
Y120000D02*
X407500Y120000D01*
X409750Y96000D02*
Y113540D01*
X403250Y96000D02*
Y111010D01*
X395000Y119260D02*
X403250Y111010D01*
X395000Y119260D02*
Y130000D01*
X36210Y123640D02*
X43500Y116350D01*
X36210Y147710D02*
X42500Y154000D01*
Y155000D01*
X36210Y123640D02*
Y147710D01*
X42500Y155000D02*
Y190000D01*
X36210Y63973D02*
X47237Y75000D01*
X36210Y28240D02*
X43500Y20950D01*
X36210Y28240D02*
Y63973D01*
X54010Y131510D02*
X57500Y135000D01*
X54010Y130800D02*
Y131510D01*
X57500Y135000D02*
Y155000D01*
X67005Y118395D02*
Y118395D01*
X90000Y141390D02*
Y167500D01*
X67005Y118395D02*
X90000Y141390D01*
X52260Y103650D02*
X67005Y118395D01*
X47880Y103650D02*
X52260D01*
X47880Y129050D02*
X52260D01*
X54010Y130800D01*
X20000Y212500D02*
X42500Y190000D01*
X43500Y116350D02*
X47880D01*
X92250Y203500D02*
X107500Y188250D01*
Y141757D02*
Y188250D01*
X93977Y137500D02*
X103243D01*
X107500Y141757D01*
X48523Y75000D02*
X70670Y97147D01*
Y114193D02*
X93977Y137500D01*
X47237Y75000D02*
X48523D01*
X43500Y20950D02*
X47880D01*
X70670Y97147D02*
Y114193D01*
X65210Y72000D02*
X65500D01*
X67500Y74000D02*
Y75000D01*
X52260Y59050D02*
X65210Y72000D01*
X65500D02*
X67500Y74000D01*
X76710Y180790D02*
X90000Y167500D01*
X76710Y180790D02*
Y216673D01*
X47880Y59050D02*
X52260D01*
X102895Y58275D02*
X124225D01*
X102120Y59050D02*
X102895Y58275D01*
X124225D02*
X125000Y57500D01*
X37500Y235500D02*
X47000Y245000D01*
X67500D01*
X20000Y212500D02*
X37500Y230000D01*
Y235500D01*
X422000Y283500D02*
X435622D01*
X421000D02*
X422000D01*
X463420Y253160D02*
X477720Y238860D01*
X463420Y253160D02*
Y280326D01*
X454342Y289404D02*
X463420Y280326D01*
X441526Y289404D02*
X454342D01*
X435622Y283500D02*
X441526Y289404D01*
X477720Y238860D02*
X484960D01*
X429000Y131000D02*
Y153688D01*
X409000Y257696D02*
X416040Y250656D01*
X409000Y257696D02*
Y268500D01*
X388300Y351000D02*
X441700D01*
X442700Y350000D01*
X494040Y211140D02*
Y229780D01*
X482500Y199600D02*
X494040Y211140D01*
X484960Y238860D02*
X494040Y229780D01*
X419000Y285500D02*
Y287213D01*
Y285500D02*
X421000Y283500D01*
X422000Y239977D02*
Y268500D01*
X403500Y237750D02*
X403596Y237846D01*
X412034D02*
X416040Y241852D01*
Y250656D01*
X413369Y231346D02*
X422000Y239977D01*
X403596Y237846D02*
X412034D01*
X403596Y231346D02*
X413369D01*
X403500Y231250D02*
X403596Y231346D01*
X440000Y124600D02*
Y125600D01*
X438000Y127600D02*
X440000Y125600D01*
X438622Y125978D02*
X440000Y124600D01*
X434022Y125978D02*
X438622D01*
X429000Y131000D02*
X434022Y125978D01*
X440000Y137500D02*
Y170000D01*
X76710Y216673D02*
X89997Y229960D01*
X102968Y224420D02*
X108580Y230032D01*
X97170Y224420D02*
X102968D01*
X92250Y203500D02*
Y219500D01*
X97170Y224420D01*
X89997Y229960D02*
X100673D01*
X103040Y232327D02*
Y270960D01*
X100673Y229960D02*
X103040Y232327D01*
X108580Y230032D02*
Y293133D01*
X97500Y304213D02*
X108580Y293133D01*
X67500Y325000D02*
X88000D01*
X97500Y315500D01*
Y304213D02*
Y315500D01*
X88000Y286000D02*
X103040Y270960D01*
X67500Y286000D02*
X88000D01*
X473030Y124600D02*
X480530Y117100D01*
X455000Y124600D02*
X473030D01*
X480530Y117100D02*
X482500D01*
X382500Y122000D02*
Y130000D01*
Y122000D02*
X396559Y107941D01*
Y96191D02*
Y107941D01*
Y96191D02*
X396750Y96000D01*
Y54000D02*
X396941Y53809D01*
Y45767D02*
Y53809D01*
Y45767D02*
X402128Y40580D01*
X427920D01*
X440000Y27500D02*
Y28500D01*
X427920Y40580D02*
X440000Y28500D01*
X449000Y17500D02*
X482500D01*
X440000Y26500D02*
Y27500D01*
Y26500D02*
X449000Y17500D01*
X474253Y137500D02*
X479253Y142500D01*
X482500D01*
X455000Y137500D02*
X474253D01*
X308000Y235500D02*
X311000Y232500D01*
D53*
X324500Y355500D02*
Y364000D01*
X321500Y367000D02*
X324500Y364000D01*
Y355500D02*
X327500Y352500D01*
Y350000D02*
Y352500D01*
X252000Y367000D02*
X321500D01*
X207500Y322500D02*
X252000Y367000D01*
X360540Y53460D02*
X389710D01*
X390500Y22000D02*
Y23500D01*
X360540Y53460D02*
X390500Y23500D01*
X261540Y53460D02*
X360540D01*
X390500Y22000D02*
X393500Y25000D01*
X311500Y194500D02*
X326000D01*
X309372D02*
X311500D01*
X296960Y206912D02*
X309372Y194500D01*
X296960Y206912D02*
Y243088D01*
X305500Y251628D01*
Y280000D01*
X240000Y123000D02*
X311500Y194500D01*
X96990Y128300D02*
X97740Y129050D01*
X82500Y114738D02*
X96062Y128300D01*
X97740Y129050D02*
X124050D01*
X82500Y74000D02*
Y114738D01*
X96062Y128300D02*
X96990D01*
X212500Y167500D02*
X240000Y195000D01*
X135000Y167500D02*
X212500D01*
X124050Y129050D02*
X135000Y140000D01*
Y167500D01*
X55600Y47100D02*
X82500Y74000D01*
X48630Y47100D02*
X55600D01*
X47880Y46350D02*
X48630Y47100D01*
X47880Y33650D02*
Y46350D01*
X305500Y280000D02*
Y293000D01*
X469960Y262940D02*
X482500Y250400D01*
X469960Y262940D02*
Y284960D01*
X142872Y366000D02*
X215872Y293000D01*
X305500D01*
X482500Y167900D02*
X495040Y155360D01*
Y111906D02*
Y155360D01*
X487374Y104240D02*
X495040Y111906D01*
X67500Y366000D02*
X142872D01*
X389436Y85564D02*
Y96606D01*
X374000Y97000D02*
X389376D01*
X373000Y98000D02*
X374000Y97000D01*
X389436Y85564D02*
X392500Y82500D01*
X447500D01*
X469240Y104240D01*
X487374D01*
X470000Y285000D02*
Y294200D01*
X482500Y306700D01*
X469960Y284960D02*
X470000Y285000D01*
X393500Y29628D02*
X397912Y34040D01*
X419460D02*
X425000Y28500D01*
X397912Y34040D02*
X419460D01*
X240000Y75000D02*
Y123000D01*
X393500Y25000D02*
Y29628D01*
X240000Y75000D02*
X261540Y53460D01*
X125000Y42500D02*
X207500D01*
X240000Y75000D01*
X425000Y27500D02*
Y28500D01*
X125000Y57500D02*
Y77500D01*
D54*
X190000Y195000D02*
D03*
D55*
X240000D02*
D03*
D56*
X482500Y250400D02*
D03*
Y167900D02*
D03*
Y332100D02*
D03*
Y357500D02*
D03*
Y382900D02*
D03*
Y225000D02*
D03*
Y275800D02*
D03*
Y117100D02*
D03*
Y142500D02*
D03*
X20000Y212500D02*
D03*
X482500Y42900D02*
D03*
D57*
Y306700D02*
D03*
Y199600D02*
D03*
Y91700D02*
D03*
X20000Y187100D02*
D03*
X482500Y17500D02*
D03*
D58*
X207500Y322500D02*
D03*
X240000Y75000D02*
D03*
D59*
X190000D02*
D03*
X157500Y322500D02*
D03*
D60*
X368000Y169000D02*
D03*
X353000Y367890D02*
D03*
X374000Y305000D02*
D03*
X368000Y244000D02*
D03*
X333000Y269610D02*
D03*
X380000D02*
D03*
X447934Y273934D02*
D03*
X448000Y301000D02*
D03*
X429000Y153688D02*
D03*
X440000Y170000D02*
D03*
M02*
